<?xml version="1.0" encoding="UTF-8"?>
<svg id="Capa_2" data-name="Capa 2" xmlns="http://www.w3.org/2000/svg" viewBox="0 0 443.38 443.38">
  <defs>
    <style>
      .cls-1, .cls-2, .cls-3, .cls-4 {
        stroke-width: 0px;
      }

      .cls-1, .cls-5 {
        fill: none;
      }

      .cls-2 {
        fill: #0d0d0d;
      }

      .cls-3, .cls-6 {
        fill: #fff;
      }

      .cls-4 {
        fill: #231f20;
      }

      .cls-7 {
        fill: #1d1e1e;
      }

      .cls-7, .cls-6 {
        stroke-width: 3px;
      }

      .cls-7, .cls-6, .cls-5 {
        stroke: #c9db4e;
        stroke-miterlimit: 10;
      }

      .cls-5 {
        stroke-width: 2px;
      }
    </style>
  </defs>
  <g id="Layer_1" data-name="Layer 1">
    <g>
      <path class="cls-7" d="m49.98,225.54c-.59,1.64-1.05,3.33-1.4,5.05.67.35,1.34.69,2.01,1.03-.2-2.03-.41-4.06-.6-6.09Z"/>
      <path class="cls-7" d="m362.27,1.5H81.12C37.22,1.5,1.5,37.22,1.5,81.12v281.15c0,43.9,35.72,79.62,79.62,79.62h281.15c43.9,0,79.62-35.72,79.62-79.62V81.12c0-43.9-35.71-79.62-79.62-79.62ZM90.12,295.94c.06,9.79-15.13,9.77-15.19,0-.04-6.12-.31-12.22-.72-18.31-1.23.6-2.45,1.17-3.65,1.69-.93.4-1.9.83-2.89,1.26.05,1.19.09,2.37.14,3.53.62,15.2,2.43,30.36,2.53,45.58.06,9.79-15.13,9.77-15.19,0-.09-14.27-2.05-29.39-2.87-44.42-4.21.44-8.34-.12-11.98-2.54-8.1-5.4-.49-18.55,7.67-13.12,1.04.69,2.41.9,4,.78.06-3.26.23-6.5.53-9.72-1.72-.82-3.45-1.63-5.21-2.38-8.96-3.87-1.21-16.95,7.67-13.12.07.03.14.07.21.1,1.13-4.26,2.6-8.43,4.52-12.5,2.21-4.69,6.93-4.72,10.26-2.41-.33-4.12-.62-8.24-.82-12.37-.47-9.79,14.72-9.73,15.19,0,.6,12.41,1.91,24.76,3.13,37.11,5.55-2.16,11.26-3.78,17.19-3.98,9.79-.34,9.75,14.85,0,15.19-1.61.06-3.22.26-4.82.57,2.21,5.03-1.82,12.57-8.83,10.79-.54-.14-1.07-.29-1.61-.44.42,6.23.71,12.46.75,18.72Zm314.2-44.67c-7.66,5.78-16.45,9.6-25.24,13.35,3.47,14.8,6.41,29.9,15.37,42.03,8.73,11.81-11.05,23.16-19.67,11.5-8.18-11.07-11.93-24.48-15.21-37.68-.11.75-.14,1.47-.04,2.15,2.03,13.13-16.13,19.37-20.97,9.32-8.3,2.71-19.21-6.56-13.8-16.69,5.51-10.34,14.28-16.81,24.16-21.95.69-.93,1.39-1.86,2.11-2.77-2.02-4.31-4.6-8.27-8.2-11.5-10.94-9.82,5.22-25.87,16.11-16.11,3.17,2.84,5.79,5.95,8.01,9.28,1.73-1.96,3.41-3.88,4.96-5.79,6.83-8.35,17.28-1.8,18.7,6.72.74-.51,1.51-.98,2.22-1.52,11.72-8.84,23.06,10.95,11.5,19.67Z"/>
      <path class="cls-5" d="m204.42,396.43v-23.52c-37.67-16.34-54.02-35.43-52.91-61.62l.2-4.79h41.21l.92,3.84c2.05,8.6,4.56,14.75,10,18.35v-25.57c-11.52-2.52-23.94-6.18-33.33-13.21-11.71-8.76-17.26-21.23-16.96-38.13.45-25.22,15.62-40.9,50.56-51.97v-22.68h41.36v22.53c35.47,10.55,51.05,27.63,51.89,56.59l.15,5.15h-5.15c-2.54,0-5.04.01-7.52.03-2.45.01-4.88.03-7.29.03-5.7,0-10.06-.08-14.14-.26-4.29-.19-8.09-4.51-9.18-7.55-1.82-5.08-4.33-8.46-7.96-10.55v22.97c1.44.34,2.87.68,4.27,1,5.69,1.33,11.57,2.7,17.22,4.58,16.48,5.5,27.78,16.91,31.82,32.11,4.24,15.95-.33,33.92-11.93,46.9-11.14,12.47-24.81,19.98-41.69,22.87v22.88h-41.54Zm42.22-66.15c8.61-2.78,12.48-6.82,11.53-12.06-.74-4.07-5.93-7.68-11.53-8.26v20.32Zm-42.44-86.59c-4.55,2.03-7.31,5.48-6.85,9.15.41,3.25,3.12,5.67,6.85,6.32v-15.47Z"/>
      <g>
        <path class="cls-3" d="m240.11,337.75c16.04-3.4,23.15-10.09,21.45-19.43-1.45-7.95-11.91-13.9-21.45-12.12v31.55Zm-32.44-99.61c-10.78,1.53-17.77,8.61-16.81,16.32.91,7.33,8.31,12.01,16.81,10.63v-26.96Z"/>
        <g>
          <path class="cls-1" d="m240.11,337.75c16.04-3.4,23.15-10.09,21.45-19.43-1.45-7.95-11.91-13.9-21.45-12.12v31.55Zm-32.44-99.61c-10.78,1.53-17.77,8.61-16.81,16.32.91,7.33,8.31,12.01,16.81,10.63v-26.96Z"/>
          <g>
            <path class="cls-4" d="m205.24,238.23c.04-.11-.38-.07-.46-.09.09.19.57.08.46.09Z"/>
            <polygon class="cls-4" points="206.19 240.06 206.02 240.03 206.44 240.3 206.19 240.06"/>
            <path class="cls-4" d="m206.18,241.77c.71-.16-.12-.62.14-.93l.16-.05-.57-.14c.09.37.47.85.27,1.11Z"/>
            <path class="cls-4" d="m204.64,242.69c.28-.06.24.2.09-.21-.03.02-.05.03-.07.04,0,.04,0,.09-.02.17Z"/>
            <path class="cls-4" d="m204.65,242.51c-.02-.18-.23.12,0,0h0Z"/>
            <path class="cls-4" d="m204.81,243.34l-.25-.24c-.16.05-.2.26-.32.18.14.24.3.19.57.06Z"/>
            <path class="cls-4" d="m205.33,243.57l-.1-.12c-.07.02-.09.05.1.12Z"/>
            <path class="cls-4" d="m205.01,243.19l.22.26c.12-.03.35-.04-.08-.12.21.02,0-.03-.14-.14Z"/>
            <path class="cls-4" d="m205.12,243.04c.16-.13.25-.31.5-.07-.1-.45-.6-.39-.5.07Z"/>
            <path class="cls-4" d="m206.92,241.86l.21-.18-.24-.15c.12.08-.19.34.03.33Z"/>
            <path class="cls-4" d="m204.44,244.82c.15.01.4-.08.6-.1l-.17-.18c-.1.09-.2.26-.42.27Z"/>
            <path class="cls-4" d="m205.04,244.73l.26.26c.03-.23-.09-.28-.26-.26Z"/>
            <polygon class="cls-4" points="206.13 243.61 205.58 243.18 206.13 243.7 206.13 243.61"/>
            <polygon class="cls-4" points="204.42 245.83 204.07 245.68 204.6 245.94 204.42 245.83"/>
            <path class="cls-4" d="m204.49,246.49c-.29-.11-.49.15-.67.03.05.18.3.33.53.47-.13-.15-.09-.3.14-.51Z"/>
            <path class="cls-4" d="m204.67,247.23c-.07-.07-.19-.15-.33-.23.07.08.16.16.33.23Z"/>
            <path class="cls-4" d="m205.23,245.44c-.09.02-.33.06-.43.21l.43-.1s0-.07,0-.1Z"/>
            <path class="cls-4" d="m205.23,245.54h-.01c-.01.12-.02.19-.02.23,0-.03.02-.1.04-.23Z"/>
            <path class="cls-4" d="m205.23,245.41v.03s.05-.02,0-.03Z"/>
            <path class="cls-4" d="m205.74,244.3c.24.15.5.48.86.16-.29-.11-.5.07-.86-.16Z"/>
            <path class="cls-2" d="m205.76,245.28l.1-.28c-.11,0-.28.06-.4-.02l.3.3Z"/>
            <polygon class="cls-4" points="205.9 245.42 205.76 245.28 205.73 245.39 205.9 245.42"/>
            <path class="cls-4" d="m205.07,246.76c.19.12.2.25.23.4.08-.16.13-.32.13-.48-.13-.02-.38-.09-.36.08Z"/>
            <path class="cls-4" d="m205.19,246.16l.02.03s.05-.03-.02-.03Z"/>
            <path class="cls-4" d="m205.3,248.62s.05-.02.08-.02h-.07s0,.02,0,.02Z"/>
            <path class="cls-4" d="m205.51,246.65c.08-.12-.02-.19-.15-.26.04.09.07.18.07.29.06,0,.1.01.08-.03Z"/>
            <path class="cls-4" d="m204.87,247.64c.09-.06.17-.13.23-.21-.14.06-.35.19-.23.21Z"/>
            <path class="cls-4" d="m205.09,246.23s-.01-.01-.02-.02c-.09.04-.05.03.02.02Z"/>
            <path class="cls-4" d="m205.09,246.23c.06.06.17.11.26.16-.03-.07-.08-.14-.14-.2-.03.01-.08.03-.12.04Z"/>
            <path class="cls-4" d="m208.04,249.07c-.4-.02-.76-.34-.34-.61-.3-.27-1.6-.09-2.33.14.17,0,.33,0,.57.28.22-.1.51-.61.86-.38.2.37-.14.3-.35.48.49-.15.72.46,1.44.38l-.26-.32c.11,0,.29.11.4.02Z"/>
            <path class="cls-4" d="m205.41,248.07l-.05-.11c-.07.13-.23.22-.54.39.19.19.34.23.47.24l.06-.56.06.04Z"/>
            <path class="cls-4" d="m205.36,247.45c.43.09.61.36,1.08.19-.03-.33-.36-.23-.55-.43.11.54-.24-.15-.48.23-.07-.11-.1-.2-.11-.29-.05.1-.12.19-.2.28h.03s0-.01,0-.01h0c.05-.02.09-.03.06,0,0,0,0,.01,0,.01.06,0,.11.01.16.02-.09.16-.11.02-.16-.02h-.06s0,0,0,0l.24.54c.06-.11.05-.26,0-.51Z"/>
            <path class="cls-4" d="m207.53,244.75s-.07.02-.1.02c.05.03.09.05.1-.02Z"/>
            <path class="cls-4" d="m207.27,244.97c-.06-.04-.23-.07-.19-.2.13-.11.21,0,.35,0-.11-.08-.31-.27-.52-.03l.06.04c-.15.22-.69.49-.74.46.39-.06.66-.12,1.04-.26Z"/>
            <path class="cls-4" d="m206.42,246.23l.21.45.37-.23h-.22c.09-.24-.19-.19-.36-.22Z"/>
            <polygon class="cls-4" points="205.08 248.67 204.63 248.61 205.27 248.87 205.08 248.67"/>
            <polygon class="cls-4" points="205.14 249.26 204.74 249.24 204.98 249.39 205.14 249.26"/>
            <path class="cls-4" d="m190.65,260.64l-.18-.08c.07.05.12.07.18.08Z"/>
            <path class="cls-4" d="m191.3,261.59l.17-.1c-.12.02-.19.05-.17.1Z"/>
            <path class="cls-4" d="m205.18,262.19c-.37-.13-.94-.47-.5-.19l.43.26c-.08-.09-.03-.09.06-.07Z"/>
            <path class="cls-4" d="m199.49,264.59s0,.09.01.14c.09-.13.17-.24.25-.35-.08.07-.17.14-.26.21Z"/>
            <path class="cls-4" d="m198.78,266.24l-.17-.35c.03.11.08.23.17.35Z"/>
            <path class="cls-4" d="m188.06,254.86l-.46-.14c.03.31.24.14.46.14Z"/>
            <path class="cls-4" d="m205.3,255.22c-.17.17-.24.3-.26.41.25-.2.62-.36.26-.41Z"/>
            <path class="cls-4" d="m194.69,258.38c-.1,0-.19.02-.27.08.1.01.19,0,.27-.08Z"/>
            <path class="cls-4" d="m205.04,256.11s.07-.06.1-.09c-.07-.12-.13-.24-.1-.39-.19.15-.3.32,0,.48Z"/>
            <path class="cls-4" d="m199.87,237.78s.04.01.06.03c-.02-.06-.04-.05-.06-.03Z"/>
            <path class="cls-4" d="m206.47,240.29s-.13.05-.2.07c.04.02.1,0,.2-.07Z"/>
            <path class="cls-4" d="m204.95,251.6c-.03-.12-.05-.02,0,0h0Z"/>
            <path class="cls-4" d="m206.66,251s.11.05.21.05c-.1-.01-.17-.03-.21-.05Z"/>
            <path class="cls-4" d="m207.74,257.34h0c.09-.03.07-.02,0,0Z"/>
            <path class="cls-4" d="m205.14,251.41c-.05.05-.1.1-.13.16.03-.03.08-.07.13-.16Z"/>
            <path class="cls-4" d="m204.94,251.44s.03-.08.04-.11c-.07-.02-.12,0-.04.11Z"/>
            <path class="cls-4" d="m204.97,251.77c0-.07.01-.14.05-.2-.03.02-.05.03-.07.03,0,.04.02.09.02.17Z"/>
            <path class="cls-4" d="m191.92,245.46s.03,0,.05,0c-.07-.21-.08-.15-.05,0Z"/>
            <path class="cls-4" d="m207.09,267.19s0-.02,0-.02h-.04s.03.02.03.02Z"/>
            <path class="cls-4" d="m206.58,267.54c.05-.54.21-.48.49-.39-.3-.39-.58-.78-.84-1.17.15.51.27,1.03.35,1.56Z"/>
            <path class="cls-4" d="m189.28,258.24l-.21.5c-.78-.18-.72-.61-1.08-.06,1.28-.46.75,1.42,2.02.83l-.13.35c-.02-.07-.1-.04-.12-.11-.32.75,1.04-.16,1.17.45.02.23-.07.47-.28.44.17.08.37.14.55.2.06.12-.15.24-.21.11l.52.52-.03.02c.23-.05.62-.07.8-.07-.04.26-.17.02-.27.16.16.03.34.05.51.07-.15.35-.64.34-.78.09-.8,1.17.47.02.43,1.15l-.39-.17c-.39.71.02.76.01,1.43.07-.26.24-1.51.78-1.42.01.16.08.33.45.28-.33.35-.08.42.16.59l-.44.47c.37.07.56-.19.88-.29.22.27-.04.71-.22,1.09.4.41.17-.85.78-.57.23.46.65.45,1.3.41.15.34-.25.31-.25.52l.51-.3c.05.04-.05.17-.1.23.3-.06.34-.54.74-.52.41-.58.15,1.29.93.74.02.21-.21.33-.29.57.78-.23.65-.13,1.36-.59.07.18.16.35.24.53-.12-.55.45-.95.89-1.3-.02-.25-.03-.47-.05-.58l.56-.17c.02.12-.09.31-.25.54.05-.04.09-.08.13-.12.09.28-.1.61-.33.9-.02-.14-.03-.29-.05-.43-.24.33-.5.7-.6,1.06.06-.06.14-.1.22-.11-.07.09-.12.17-.12.24,0,.07.1-.05.23-.17l-.1.72.11-.26c.18.22.37.45.57.64.71-.58,1.34-1.47,2.12-1.66-.27.49-.18.84-.29,1.45-.1-.67-.66.17-1.06-.07.2.12.09.4.01.48.3-.14.58-.26.86-.43-.11.5.09.4.26.63.01-1.01.65-.58.99-.84-.02.34-.13.67-.49.54.33.8.65-1.08.98-.43-.09,0-.13-.05-.18.12.12-.14.3-.15.43-.08.13.07.28.21.19.35h-.12c.39.08,1.02.12,1.49-.02.47-.15.78-.41.66-.82.05.11.3,1,.3,1.17.13-.97.08-1.84-.29-2.84.19.37.63.98.99,1.51.36.54.66,1.05.43,1.27.24.09.58.16.82-.12-.21-.08-.99-.94-.88-1.02.98.7.56.37,1.68.93-.32-.12-1.02-1.19-.76-1.18.11.16,1,1.02.99,1.14-.03-.18-.07-.37-.13-.55-.03-.1-.04-.17-.11-.29l-.26-.41c.19.33.9.87,1.21.95-.21-.1.05-.65-.05-.94-.09.05-.18.09-.26.13.2-.75-1.51-1.84-1.46-2.38.23.17,1.42.95,1.57.58-.29-.23-.98-.75-1.66-1.19-.68-.45-1.34-.79-1.56-.98l.33-.02c-.12-.11-.25-.21-.38-.3.43.09,1.11.31,1.76.72.65.39,1.29.96,1.64,1.39.26-.24.39.04.36-.49.31-.11.47.43.49.61l.2-1.3c-.67-.06-.67-1.06-1.23-1,.23.41.46.86.7,1.37-.34-.05-.81-.35-1.19-.66-.38-.3-.66-.66-.6-.91.27-.14,1.2.1,1.42.09-.23-.07-.44-.52-.28-.57l.36.23c.25-.31-.89-.5-.25-.86.04-.13.87-.38.47-.4-.77.21-3.14.25-3.72.11.05-.04.73-.66,1.11-.81.6-.21,1.43.3[... 4839 chars omitted ...]
            <path class="cls-4" d="m198.87,266.05c0-.09.02-.17.05-.26-.06.06-.1.15-.05.26Z"/>
            <path class="cls-4" d="m188.14,254.88s0-.01,0-.02c-.03,0-.06,0-.09,0l.09.02Z"/>
            <path class="cls-4" d="m209.64,259.01c-.07.09-.16.13-.25.17.12,0,.22-.03.25-.17Z"/>
            <path class="cls-4" d="m204.73,250.32l.13.27c-.02-.13.08-.18.16-.24-.11,0-.28.06-.28-.03Z"/>
            <path class="cls-4" d="m207.71,248c-.06-.04,0-.08-.07-.12h-.22c.01.18.2.29.29.12Z"/>
            <path class="cls-4" d="m206.33,250.07c.41-.02.27-.19.19-.38,0,.01,0,.02,0,.03-.57-.06-.38.14-.19.34Z"/>
            <path class="cls-4" d="m206.51,249.65c-.02-.06-.03-.12-.01-.17-.23-.02-.05.07.01.17Z"/>
            <path class="cls-4" d="m205.28,252c.1-.09-.52-.06-.35-.11-.52-.1.62.59.35.11Z"/>
            <polygon class="cls-4" points="207.67 249.92 207.17 249.99 207.57 250.09 207.67 249.92"/>
            <path class="cls-4" d="m207.3,251.4l.14-.3c-.08,0-.13-.03-.17-.08-.02.18-.12.39.03.38Z"/>
            <path class="cls-4" d="m207.27,251.02c0-.1,0-.19-.08-.24,0,.05.02.16.08.24Z"/>
            <polygon class="cls-4" points="207.82 250.33 207.72 250.42 207.68 250.63 207.82 250.33"/>
            <path class="cls-4" d="m207.2,254.62l.14.33c.17.03.28-.06.21-.18-.12-.08-.19-.2-.35-.15Z"/>
            <path class="cls-4" d="m208.58,253.63c-.1.09-.22.09-.38.14h.62s-.24-.14-.24-.14Z"/>
            <path class="cls-4" d="m208.72,254.59c.17.03.49.47.46.06-.17-.03-.31-.36-.46-.06Z"/>
            <polygon class="cls-4" points="207.94 259.51 207.93 259.43 206.91 259.44 207.94 259.51"/>
            <path class="cls-4" d="m210.32,265.49c.27-.49-.61-.5-.28-.88-.23-.26-.27.3-.47.05.24.48.09.59.75.83Z"/>
            <path class="cls-4" d="m209.57,264.66c-.04-.08-.08-.16-.15-.25.06.13.11.2.15.25Z"/>
            <polygon class="cls-4" points="207.4 240.68 207.66 240.85 207.46 240.53 207.4 240.68"/>
            <path class="cls-4" d="m207.72,239.85l.15.63.05-.61s-.14.11-.2-.03Z"/>
            <path class="cls-4" d="m192.28,264.25l.12-.1c.08-.16.03-.21-.06-.33l-.06.43Z"/>
            <polygon class="cls-4" points="189.92 260.65 189.94 260.72 190.38 260.3 189.92 260.65"/>
            <path class="cls-4" d="m187.73,257.62c.02.15.2.29.22.44-.2-.29.46-.7-.22-.44Z"/>
          </g>
          <g>
            <path class="cls-4" d="m242.54,337.64c-.04.13.38.09.46.11-.09-.22-.57-.1-.46-.11Z"/>
            <polygon class="cls-4" points="241.59 335.43 241.76 335.47 241.35 335.14 241.59 335.43"/>
            <path class="cls-4" d="m241.6,333.36c-.71.2.12.75-.14,1.12l-.16.06.57.17c-.09-.45-.47-1.03-.27-1.35Z"/>
            <path class="cls-4" d="m243.15,332.25c-.28.07-.24-.24-.09.26.03-.02.05-.03.07-.05,0-.04,0-.11.02-.21Z"/>
            <path class="cls-4" d="m243.13,332.46c.02.22.23-.14,0,0h0Z"/>
            <path class="cls-4" d="m242.97,331.46l.25.29c.16-.06.2-.32.32-.22-.14-.29-.3-.23-.57-.07Z"/>
            <path class="cls-4" d="m242.45,331.18l.11.15c.07-.03.09-.07-.11-.15Z"/>
            <path class="cls-4" d="m242.78,331.65l-.22-.32c-.12.04-.35.05.08.15-.21-.03,0,.04.14.17Z"/>
            <path class="cls-4" d="m242.67,331.83c-.16.16-.25.37-.5.08.1.55.6.47.5-.08Z"/>
            <path class="cls-4" d="m240.86,333.25l-.21.22.24.19c-.12-.09.19-.42-.03-.4Z"/>
            <path class="cls-4" d="m243.34,329.66c-.15-.02-.4.1-.6.12l.17.21c.1-.11.2-.32.42-.33Z"/>
            <path class="cls-4" d="m242.74,329.82l-.26-.32c-.03.28.09.34.26.32Z"/>
            <polygon class="cls-4" points="241.66 331.13 242.2 331.65 241.65 331.03 241.66 331.13"/>
            <polygon class="cls-4" points="243.36 328.45 243.71 328.63 243.18 328.31 243.36 328.45"/>
            <path class="cls-4" d="m243.3,327.65c.29.13.49-.18.67-.04-.05-.22-.3-.41-.53-.57.13.18.09.37-.15.62Z"/>
            <path class="cls-4" d="m243.11,326.75c.07.09.19.18.33.28-.07-.09-.16-.19-.33-.28Z"/>
            <path class="cls-4" d="m242.55,328.92c.09-.02.33-.07.43-.25l-.43.12s0,.08,0,.13Z"/>
            <path class="cls-4" d="m242.55,328.8h.01c.01-.14.02-.23.02-.27,0,.03-.02.12-.04.27Z"/>
            <path class="cls-4" d="m242.55,328.96v-.03s-.05.02,0,.03Z"/>
            <path class="cls-4" d="m242.04,330.3c-.24-.19-.5-.58-.86-.2.29.13.5-.08.86.2"/>
            <path class="cls-4" d="m242.02,329.11l-.1.34c.11,0,.28-.07.4.02l-.3-.36Z"/>
            <polygon class="cls-4" points="241.88 328.95 242.02 329.11 242.05 328.99 241.88 328.95"/>
            <path class="cls-4" d="m242.71,327.33c-.19-.15-.2-.31-.23-.49-.08.19-.13.39-.13.58.13.03.38.11.36-.1Z"/>
            <path class="cls-4" d="m242.6,328.04l-.02-.03s-.05.04.02.03Z"/>
            <path class="cls-4" d="m242.49,325.07s-.05.02-.08.03h.07s0-.03,0-.03Z"/>
            <path class="cls-4" d="m242.27,327.46c-.08.15.02.23.15.31-.04-.11-.07-.22-.07-.35-.06-.01-.1-.01-.08.03Z"/>
            <path class="cls-4" d="m242.91,326.25c-.09.08-.16.16-.23.25.14-.07.35-.22.23-.25Z"/>
            <path class="cls-4" d="m242.69,327.96s.01.01.02.02c.09-.05.05-.04-.02-.02Z"/>
            <path class="cls-4" d="m242.69,327.96c-.06-.07-.17-.13-.26-.19.03.09.08.17.14.24.03-.02.08-.04.12-.05Z"/>
            <path class="cls-4" d="m239.74,324.53c.4.03.76.41.34.74.3.32,1.6.11,2.33-.17-.17-.01-.33-.01-.57-.34-.22.12-.51.74-.86.46-.2-.44.14-.36.35-.58-.49.18-.72-.56-1.44-.47l.26.39c-.11,0-.29-.13-.4-.03Z"/>
            <path class="cls-4" d="m242.37,325.73l.05.14c.07-.16.23-.27.54-.47-.19-.23-.34-.28-.47-.29l-.06.68-.06-.05Z"/>
            <path class="cls-4" d="m242.42,326.49c-.43-.11-.61-.44-1.08-.23.03.4.36.28.55.52-.11-.65.24.19.48-.28.07.13.1.24.11.35.05-.12.12-.23.2-.34h-.03s0,.02,0,.02h0c-.05.03-.09.04-.06,0,0,0,0-.01,0-.01-.06,0-.11-.02-.16-.03.09-.19.11-.03.16.03h.06s0,0,0,0l-.24-.65c-.06.14-.05.31,0,.62Z"/>
            <path class="cls-4" d="m240.26,329.75s.07-.02.1-.02c-.05-.04-.09-.06-.1.02Z"/>
            <path class="cls-4" d="m240.52,329.48c.06.05.23.09.19.24-.13.13-.21,0-.35,0,.11.09.31.32.52.03l-.06-.05c.15-.26.69-.6.74-.55-.39.08-.66.14-1.04.32Z"/>
            <path class="cls-4" d="m241.36,327.97l-.21-.54-.37.28h.22c-.09.29.19.23.36.27Z"/>
            <polygon class="cls-4" points="242.7 325.01 243.16 325.08 242.51 324.77 242.7 325.01"/>
            <polygon class="cls-4" points="242.65 324.3 243.04 324.33 242.8 324.14 242.65 324.3"/>
            <path class="cls-4" d="m261.31,312.06l.2.09c-.08-.05-.14-.08-.2-.09Z"/>
            <path class="cls-4" d="m260.51,310.99l-.17.1c.12-.02.2-.06.17-.1Z"/>
            <path class="cls-4" d="m242.6,308.82c.37.17.94.62.5.25l-.43-.34c.08.12.03.11-.06.09Z"/>
            <path class="cls-4" d="m251,307.21s-.01-.1-.02-.15c-.1.12-.2.23-.29.33.09-.06.2-.12.31-.18Z"/>
            <path class="cls-4" d="m251.8,305.6l.2.39c-.03-.12-.1-.25-.2-.39Z"/>
            <path class="cls-4" d="m264.48,318.94l.47.17c-.05-.35-.25-.17-.47-.17Z"/>
            <path class="cls-4" d="m242.49,317.13c.17-.2.24-.36.26-.5-.25.24-.62.44-.26.5Z"/>
            <path class="cls-4" d="m257.36,314.48c.11.02.2,0,.28-.07-.11-.03-.2-.01-.28.07Z"/>
            <path class="cls-4" d="m242.75,316.05s-.07.07-.1.11c.07.15.13.29.1.47.19-.18.38,0,-.58Z"/>
            <path class="cls-4" d="m249.23,337.79s-.05-.01-.07-.03c.02.06.04.05.07.03Z"/>
            <path class="cls-4" d="m241.55,335.5c.06-.04.16-.06.25-.09-.05-.02-.13,0-.25.09Z"/>
            <path class="cls-4" d="m242.83,321.51c.03.15.05.02,0,0h0Z"/>
            <path class="cls-4" d="m241.12,322.23s-.11-.06-.21-.06c.1.01.17.03.21.06Z"/>
            <path class="cls-4" d="m240.05,314.56s0,0,0-.01c-.08.04-.07.04,0,.01Z"/>
            <path class="cls-4" d="m242.64,321.73c.05-.06.1-.12.13-.19-.03.03-.08.09-.13.19Z"/>
            <path class="cls-4" d="m242.84,321.7c-.02.05-.03.09-.04.13.07.02.12,0,.04-.13Z"/>
            <path class="cls-4" d="m242.81,321.3c0,.09-.01.17-.04.24.03-.03.05-.04.07-.03,0-.04-.01-.11-.02-.21Z"/>
            <path class="cls-4" d="m259.66,329.96s-.03,0-.06,0c.02.24.05.17.06,0Z"/>
            <path class="cls-4" d="m242.78,303.97s-.01.02-.02.02h.04s-.01-.02-.01-.02Z"/>
            <path class="cls-4" d="m243.56,303.59c-.31.56-.48.51-.77.41.17.4.32.81.45,1.21.06-.54.16-1.08.31-1.63Z"/>
            <path class="cls-4" d="m263.06,314.87l.18-.59c.8.25.77.76,1.09.11-.65.24-.82-.2-1.09-.57-.25-.38-.5-.76-1.1-.45l.1-.41c.03.08.11.05.14.13.26-.86-1.04.14-1.29-.53-.06-.26,0-.52.23-.47l-.6-.25c-.07-.15.13-.26.21-.11-.19-.22-.4-.4-.62-.59l.03-.02c-.24.05-.67.07-.86.07,0-.28.18-.02.27-.17l-.54-.11c.13-.38.63-.33.81-.06.69-1.23-.48-.08-.59-1.28.15.06.3.11.45.18.34-.75-.13-.79-.19-1.5-.06.28-.07,1.58-.68,1.48-.03-.17-.14-.33-.52-.31.32-.36.04-.45-.22-.66l.43-.47c-.4-.1-.59.18-.93.28-.27-.29-.04-.73.13-1.12-.46-.47-.12.9-.8.54-.27-.53-.75-.51-1.47-.51-.19-.38.26-.3.25-.52l-.54.26c-.06-.05.04-.17.09-.23-.33.03-.35.54-.79.47-.43.56-.27-1.3-1.1-.83-.03-.22.23-.32.3-.56-.87.14-.72.06-1.53.49l-.29-.57c.15.58-.49.93-1,1.23.03.26.05.49.07.61l-.66.1c-.03-.12.1-.31.28-.53-.06.03-.11.07-.15.11-.12-.29.1-.6.38-.89.02.15.04.3.07.45.27-.31.57-.65.67-1.01-.07.05-.16.08-.26.08.08-.08.13-.16.14-.23,0-.07-.11.04-.26.15l.11-.72-.13.25-.67-.68c-.81.49-1.58,1.35-2.51,1.46.33-.46.24-.82.38-1.42.1.7.79-.12,1.24.16-.23-.14-.1-.41,0-.49-.34.11-.69.24-1.02.37.14-.49-.1-.41-.28-.67-.04,1.03-.78.48-1.19.75.03-.33.18-.68.6-.5-.35-.84-.82,1.06-1.18.36.11,0,.15.07.22-.1-.29.26-.85-.06-.68-.33h.11c-.7-.25-2.17-.14-2.32.68-.01-.11.1-1.02.16-1.19-.56.92-.94,1.92-.97,2.87-.06-.37-.29-.98-.47-1.53-.18-.56-.3-1.08.08-1.31-.25-.09-.6-.18-1.01.1.21.09.72.99.56,1.07-.82-.74-.49-.41-1.54-.99.31.12.64,1.22.35,1.23-.05-.17-.71-1.04-.64-1.17-.09.39-.13.77-.11,1.15.04-.21-.64-.87-1.11-1.13.27.19-.84.09-1,.23l.63.18c-.72-.12-.13.68.22,1.18.39.55.8,1.03.77,1.38-.23-.22-1.39-1.2-1.55-.76.28.29.96.93,1.63,1.49.68.58,1.34,1.02,1.56,1.27h-.33c.12.15.25.27.38.39-.43-.13-1.11-.44-1.76-.96-.65-.5-1.29-1.23-1.63-1.75-.27.27-.4-.08-.37.57-.31.12-.47-.55-.48-.76l-.2,1.56c.67.1.67,1.31,1.23,1.27-.23-.5-.46-1.07-.7-1.69.34.07.81.46,1.19.85.38.4.66.8.6,1.16-.27.17-1.2-.12-1.42-.15.23.16.44.65.28.73l-.36-.28c-.25.37.89.6.25,1.05-.04.15-.87.46-.47.48.77-.25,3.14-.3,3.72-.13-.05.05-.73.8-1.11.98-.6.25-1.43-.38-1.95-.16.18[... 4815 chars omitted ...]
            <path class="cls-4" d="m251.71,305.78c0,.09-.02.18-.05.26.07-.06.11-.14.05-.26Z"/>
            <path class="cls-4" d="m264.4,318.91s0,.01,0,.02c.03,0,.06,0,.09,0l-.09-.03Z"/>
            <path class="cls-4" d="m238.14,312.55c.07-.1.16-.16.25-.2-.12,0-.22.04-.25.2Z"/>
            <path class="cls-4" d="m243.05,323.05l-.13-.32c.02.16-.08.21-.16.29.11,0,.28-.07.28.03Z"/>
            <path class="cls-4" d="m240.07,325.86c.06.05,0,.1.07.15h.22c-.01-.21-.2-.36-.29-.15Z"/>
            <path class="cls-4" d="m241.45,323.35c-.41.03-.27.23-.19.46,0-.01,0-.03,0-.04.57.07.38-.17.19-.42Z"/>
            <path class="cls-4" d="m241.27,323.86c.02.07.03.14.01.21.23.03.05-.08-.01-.21Z"/>
            <path class="cls-4" d="m242.5,321.02c-.1.11.52.07.35.13.52.12-.62-.72-.35-.13Z"/>
            <polygon class="cls-4" points="240.11 323.54 240.61 323.46 240.21 323.33 240.11 323.54"/>
            <path class="cls-4" d="m240.48,321.75l-.14.36c.08,0,.13.04.17.1.02-.22.12-.47-.03-.46Z"/>
            <path class="cls-4" d="m240.51,322.21c0,.12,0,.23.08.29,0-.06-.02-.2-.08-.29Z"/>
            <polygon class="cls-4" points="239.96 323.04 240.07 322.94 240.1 322.68 239.96 323.04"/>
            <path class="cls-4" d="m240.58,317.85l-.14-.4c-.17-.04-.28.07-.21.21.12.09.19.24.35.18Z"/>
            <path class="cls-4" d="m239.2,319.05c.1-.11.22-.11.38-.17h-.62s.24.17.24.17Z"/>
            <path class="cls-4" d="m239.06,317.89c-.17-.04-.49-.57-.46-.07.17.04.31.44.46.07Z"/>
            <polygon class="cls-4" points="239.85 311.94 239.85 312.04 240.87 312.02 239.85 311.94"/>
            <path class="cls-4" d="m237.5,304.59c-.27.59.6.63.28,1.08.23.32.26-.36.46-.04-.23-.59-.08-.73-.74-1.04Z"/>
            <path class="cls-4" d="m238.24,305.63c.04.09.08.2.14.31-.06-.16-.1-.25-.14-.31Z"/>
            <polygon class="cls-4" points="240.38 335.21 240.06 335.07 240.31 335.36 240.38 335.21"/>
            <path class="cls-4" d="m240,336.08l-.2-.62-.05.61c.06-.04.17-.13.25,0Z"/>
            <path class="cls-4" d="m259.16,308.12l-.12.1c-.07.17-.02.23.09.36l.03-.46Z"/>
            <polygon class="cls-4" points="262.1 312.1 262.06 312.02 261.67 312.48 262.1 312.1"/>
            <path class="cls-4" d="m264.72,315.65c-.04-.18-.25-.34-.29-.52.25.34-.38.8.29.52Z"/>
          </g>
        </g>
      </g>
      <path class="cls-6" d="m326.99,188c-7.85,0-16.01-1.36-24.26-4.03-13.8-4.48-26.52-12.1-38.87-23.29-8.46-7.66-17.19-16.2-23.74-26.72-4.62-7.4-7.62-13.94-9.44-20.58-.33-1.21-.75-2.39-1.25-3.5-.55-1.24-1.35-2.07-3.48-2.07-2.17,0-2.97.84-3.52,2.09-.75,1.73-1.33,3.59-1.95,5.55-.7,2.22-1.42,4.51-2.45,6.83-4.05,9.12-9.89,17.83-17.35,25.89-8.67,9.37-16.61,16.44-24.98,22.26-14.77,10.28-29.35,15.92-44.55,17.24-2.12.19-4.25.28-6.33.28-14.15,0-27.45-4.24-39.52-12.59-15.24-10.54-25.63-24.87-31.76-43.78-2.61-8.05-3.99-16.45-4.23-25.67,0-.02,0-.03,0-.05-.13,0-.27,0-.42-.01-.33,0-.66,0-.99,0h-.69c-8.55-.03-11.62-1.95-14.94-9.32l-.44-.98v-10.99l.43-.96c3.11-7.05,6.74-9.32,14.93-9.35h2.12c1.45-.02,2.9-.02,4.35-.02h.96c1.63,0,2.2-.5,2.79-1.54,4.37-7.66,10.64-13.82,18.66-18.32,7.75-4.35,16.4-6.98,25.73-7.83,22.18-2.02,44.69-2.29,63.79-2.29,6.1,0,12.19.03,18.29.06,6.08.03,12.16.06,18.24.06,1.92,0,3.84,0,5.76,0,16.91-.06,34.95-.12,53.15-.12s34.59.06,49.7.18c16.16.13,29.38.88,41.59,2.35,15.37,1.85,27.84,8.13,37.06,18.66,1.89,2.16,3.34,4.45,4.73,6.65.36.57.73,1.15,1.1,1.72,1.34,1.09,3.44,1.77,5.5,1.77.91,0,1.78-.14,2.51-.4,1.38-.49,2.82-.74,4.29-.74,5.55,0,10.54,3.59,12.14,8.73,1.52,4.91,1.42,9.92-.31,14.88l-.12.33-.16.31c-1.57,3.05-4.95,6.77-12.08,7.15-.62.03-1.23.04-1.85.04-.36,0-2.06-.01-2.06-.01-.35,0-.71,0-1.06.02-.02,4.43-.21,9.62-1.26,14.97-5.16,26.17-17.76,44.91-38.54,57.28-11.03,6.57-22.89,9.9-35.23,9.9Z"/>
    </g>
  </g>
</svg>